<svg version="1.1" xmlns="http://www.w3.org/2000/svg" xmlns:xlink="http://www.w3.org/1999/xlink" width="120.6478" height="52.287" viewBox="0,0,120.6478,52.287"><defs><linearGradient x1="179.6762" y1="180.0002" x2="300.3235" y2="180.0002" gradientUnits="userSpaceOnUse" id="color-1"><stop offset="0" stop-color="#27aae1"/><stop offset="1" stop-color="#115489"/></linearGradient><linearGradient x1="184.5035" y1="180.0002" x2="295.4967" y2="180.0002" gradientUnits="userSpaceOnUse" id="color-2"><stop offset="0" stop-color="#2f7eba"/><stop offset="0.506" stop-color="#3f9dd6"/><stop offset="1" stop-color="#3e97d1"/></linearGradient></defs><g transform="translate(-179.6761,-153.8565)"><g data-paper-data="{&quot;isPaintingLayer&quot;:true}" fill-rule="nonzero" stroke="none" stroke-width="1" stroke-linecap="butt" stroke-linejoin="miter" stroke-miterlimit="10" stroke-dasharray="" stroke-dashoffset="0" style="mix-blend-mode: normal"><path d="M300.3239,179.9995c0,14.416 -11.79232,26.144 -26.28513,26.144h-68.07854c-14.49282,0 -26.28413,-11.727 -26.28413,-26.144c0,-14.415 11.79031,-26.143 26.28413,-26.143h68.07854c14.49282,0 26.28513,11.728 26.28513,26.143z" fill="url(#color-1)"/><path d="M295.497,179.9995c0,11.952 -9.688,21.641 -21.64,21.641h-67.713c-11.952,0 -21.641,-9.689 -21.641,-21.641v0c0,-11.951 9.689,-21.64 21.641,-21.64h67.713c11.952,0 21.64,9.689 21.64,21.64z" fill="url(#color-2)"/><text transform="translate(191.94263,182.54317) scale(0.22043,0.22043)" font-size="40" xml:space="preserve" fill="#000000" fill-rule="nonzero" stroke="none" stroke-width="1" stroke-linecap="butt" stroke-linejoin="miter" stroke-miterlimit="10" stroke-dasharray="" stroke-dashoffset="0" font-family="Marker" font-weight="normal" text-anchor="start" style="mix-blend-mode: normal"><tspan x="0" dy="0">Geography And History</tspan></text></g></g></svg>